[Header]
FileType HTR
DataType HTRS
FileVersion 1
NumSegments 64
NumFrames 3
DataFrameRate 24
EulerRotationOrder ZYX
CalibrationUnits mm
RotationUnits Degrees
GlobalAxisofGravity Y
BoneLengthAxis Y
ScaleFactor 1.0
[SegmentNames&Hierarchy]
Hips	GLOBAL
Spine	Hips
Spine1	Spine
Spine2	Spine1
Neck	Spine2
Head	Neck
LeftEye	Head
RightEye	Head
LeftShoulder	Spine2
LeftArm	LeftShoulder
LeftForeArm	LeftArm
LeftHand	LeftForeArm
LeftHandThumb1	LeftHand
LeftHandThumb2	LeftHandThumb1
LeftHandThumb3	LeftHandThumb2
LeftHandThumb4	LeftHandThumb3
LeftHandIndex1	LeftHand
LeftHandIndex2	LeftHandIndex1
LeftHandIndex3	LeftHandIndex2
LeftHandIndex4	LeftHandIndex3
LeftHandMiddle1	LeftHand
LeftHandMiddle2	LeftHandMiddle1
LeftHandMiddle3	LeftHandMiddle2
LeftHandMiddle4	LeftHandMiddle3
LeftHandRing1	LeftHand
LeftHandRing2	LeftHandRing1
LeftHandRing3	LeftHandRing2
LeftHandRing4	LeftHandRing3
LeftHandPinky1	LeftHand
LeftHandPinky2	LeftHandPinky1
LeftHandPinky3	LeftHandPinky2
LeftHandPinky4	LeftHandPinky3
RightShoulder	Spine2
RightArm	RightShoulder
RightForeArm	RightArm
RightHand	RightForeArm
RightHandPinky1	RightHand
RightHandPinky2	RightHandPinky1
RightHandPinky3	RightHandPinky2
RightHandPinky4	RightHandPinky3
RightHandRing1	RightHand
RightHandRing2	RightHandRing1
RightHandRing3	RightHandRing2
RightHandRing4	RightHandRing3
RightHandMiddle1	RightHand
RightHandMiddle2	RightHandMiddle1
RightHandMiddle3	RightHandMiddle2
RightHandMiddle4	RightHandMiddle3
RightHandIndex1	RightHand
RightHandIndex2	RightHandIndex1
RightHandIndex3	RightHandIndex2
RightHandIndex4	RightHandIndex3
RightHandThumb1	RightHand
RightHandThumb2	RightHandThumb1
RightHandThumb3	RightHandThumb2
RightHandThumb4	RightHandThumb3
LeftUpLeg	Hips
LeftLeg	LeftUpLeg
LeftFoot	LeftLeg
LeftToeBase	LeftFoot
RightUpLeg	Hips
RightLeg	RightUpLeg
RightFoot	RightLeg
RightToeBase	RightFoot
[BasePosition]
Hips	0	0	0	0	0	0	1
Spine	0	0	0	0	0	0	1
Spine1	0	0	0	0	0	0	1
Spine2	0	0	0	0	0	0	1
Neck	0	0	0	0	0	0	1
Head	0	0	0	0	0	0	1
LeftEye	0	0	0	0	0	0	1
RightEye	0	0	0	0	0	0	1
LeftShoulder	0	0	0	0	0	0	1
LeftArm	0	0	0	0	0	0	1
LeftForeArm	0	0	0	0	0	0	1
LeftHand	0	0	0	0	0	0	1
LeftHandThumb1	0	0	0	0	0	0	1
LeftHandThumb2	0	0	0	0	0	0	1
LeftHandThumb3	0	0	0	0	0	0	1
LeftHandThumb4	0	0	0	0	0	0	1
LeftHandIndex1	0	0	0	0	0	0	1
LeftHandIndex2	0	0	0	0	0	0	1
LeftHandIndex3	0	0	0	0	0	0	1
LeftHandIndex4	0	0	0	0	0	0	1
LeftHandMiddle1	0	0	0	0	0	0	1
LeftHandMiddle2	0	0	0	0	0	0	1
LeftHandMiddle3	0	0	0	0	0	0	1
LeftHandMiddle4	0	0	0	0	0	0	1
LeftHandRing1	0	0	0	0	0	0	1
LeftHandRing2	0	0	0	0	0	0	1
LeftHandRing3	0	0	0	0	0	0	1
LeftHandRing4	0	0	0	0	0	0	1
LeftHandPinky1	0	0	0	0	0	0	1
LeftHandPinky2	0	0	0	0	0	0	1
LeftHandPinky3	0	0	0	0	0	0	1
LeftHandPinky4	0	0	0	0	0	0	1
RightShoulder	0	0	0	0	0	0	1
RightArm	0	0	0	0	0	0	1
RightForeArm	0	0	0	0	0	0	1
RightHand	0	0	0	0	0	0	1
RightHandPinky1	0	0	0	0	0	0	1
RightHandPinky2	0	0	0	0	0	0	1
RightHandPinky3	0	0	0	0	0	0	1
RightHandPinky4	0	0	0	0	0	0	1
RightHandRing1	0	0	0	0	0	0	1
RightHandRing2	0	0	0	0	0	0	1
RightHandRing3	0	0	0	0	0	0	1
RightHandRing4	0	0	0	0	0	0	1
RightHandMiddle1	0	0	0	0	0	0	1
RightHandMiddle2	0	0	0	0	0	0	1
RightHandMiddle3	0	0	0	0	0	0	1
RightHandMiddle4	0	0	0	0	0	0	1
RightHandIndex1	0	0	0	0	0	0	1
RightHandIndex2	0	0	0	0	0	0	1
RightHandIndex3	0	0	0	0	0	0	1
RightHandIndex4	0	0	0	0	0	0	1
RightHandThumb1	0	0	0	0	0	0	1
RightHandThumb2	0	0	0	0	0	0	1
RightHandThumb3	0	0	0	0	0	0	1
RightHandThumb4	0	0	0	0	0	0	1
LeftUpLeg	0	0	0	0	0	0	1
LeftLeg	0	0	0	0	0	0	1
LeftFoot	0	0	0	0	0	0	1
LeftToeBase	0	0	0	0	0	0	1
RightUpLeg	0	0	0	0	0	0	1
RightLeg	0	0	0	0	0	0	1
RightFoot	0	0	0	0	0	0	1
RightToeBase	0	0	0	0	0	0	1
[Hips]
37	9.645501137	888.7456055	-5.792431831	7.83062458	17.04645157	-8.855882645	1.0
38	7.175779343	919.4228516	-16.25324249	8.172448158	17.03354645	-8.38757515	1.0
39	8.969876289	951.6986084	-22.98830414	8.488614082	14.39658356	-7.672306538	1.0
[Spine]
37	0	101.8159943	1.315000057	7.378847122	5.268512726	2.005216122	1.0
38	0	101.8159943	1.315000057	6.844977856	4.336341858	2.440322399	1.0
39	0	101.8159943	1.315000057	6.164720535	4.397546768	2.52842927	1.0
[Spine1]
37	0	100.8349991	-10.00800037	2.733319283	1.763681412	1.087153077	1.0
38	0	100.8349991	-10.00800037	2.479026794	1.073556542	1.281644464	1.0
39	0	100.8349991	-10.00800037	2.152231455	0.8793719411	1.382730961	1.0
[Spine2]
37	0	91	-13.73399925	2.699180365	1.794235587	1.09079206	1.0
38	0	91	-13.73399925	2.444340229	1.107521772	1.302134514	1.0
39	0	91	-13.73399925	2.113930702	0.9185281992	1.407274842	1.0
[Neck]
37	0	166.7169952	-25.16200066	5.299804211	-3.666212797	-2.027811766	1.0
38	0	166.7169952	-25.16200066	4.653904915	-3.095286608	-1.922899842	1.0
39	0	166.7169952	-25.16200066	4.526193142	-2.823482037	-1.435850739	1.0
[Head]
37	0	96.17900085	16.84999847	-20.24227333	-18.80773544	17.72918701	1.0
38	0	96.17900085	16.84999847	-19.48115158	-16.91417885	16.41234779	1.0
39	0	96.17900085	16.84999847	-18.42445755	-15.28621483	14.55398464	1.0
[LeftEye]
37	30.6760006	64.09500122	92.83599854	0	0	0	1.0
38	30.6760006	64.09500122	92.83599854	0	0	0	1.0
39	30.6760006	64.09500122	92.83599854	0	0	0	1.0
[RightEye]
37	-30.6760006	64.09500122	92.83499908	0	0	0	1.0
38	-30.6760006	64.09500122	92.83499908	0	0	0	1.0
39	-30.6760006	64.09500122	92.83499908	0	0	0	1.0
[LeftShoulder]
37	45.70400238	109.4599991	-26.28000069	5.463371754	-15.42265892	-16.59727669	1.0
38	45.70400238	109.4599991	-26.28000069	5.576981544	-17.01912308	-16.41142654	1.0
39	45.70400238	109.4599991	-26.28000069	5.409759998	-17.18362999	-15.38866043	1.0
[LeftArm]
37	105.923996	-5.24600029	-22.32099915	3.527833223	-14.98517036	-55.06801987	1.0
38	105.923996	-5.24600029	-22.32099915	12.65296841	-18.73872185	-57.83256912	1.0
39	105.923996	-5.24600029	-22.32099915	19.43185806	-21.26373482	-57.99632263	1.0
[LeftForeArm]
37	278.414978	-0.0009999999311	0	-1.023184154e-06	-27.32458496	-0.0002045498404	1.0
38	278.414978	-0.0009999999311	0	5.172522833e-06	-22.06977844	-0.0002174455149	1.0
39	278.414978	-0.0009999999311	0	7.650053249e-07	-22.8704052	-0.0001884175144	1.0
[LeftHand]
37	283.2879944	0	0	-73.54949951	20.72934341	9.231350899	1.0
38	283.2879944	0	0	-70.48557281	10.27762604	2.245736837	1.0
39	283.2879944	0	0	-61.25143051	-3.378371954	-2.049037695	1.0
[LeftHandThumb1]
37	24.6609993	-15.75	26.8239994	-0.487991184	2.204189301	4.819605827	1.0
38	24.6609993	-15.75	26.8239994	-0.4838380516	2.214606762	4.823031425	1.0
39	24.6609993	-15.75	26.8239994	-0.489842236	2.199132204	4.817728043	1.0
[LeftHandThumb2]
37	32.29800034	-18.64699936	18.64699936	20.0409565	30.58318329	23.47493935	1.0
38	32.29800034	-18.64699936	18.64699936	21.06555176	31.15101242	23.87556839	1.0
39	32.29800034	-18.64699936	18.64699936	20.82499886	29.6510849	23.70442772	1.0
[LeftHandThumb3]
37	26.52600098	-15.31499958	15.31499958	-13.10492611	6.168940067	8.570153236	1.0
38	26.52600098	-15.31499958	15.31499958	-13.16975498	5.903563499	8.917492867	1.0
39	26.52600098	-15.31499958	15.31499958	-13.18458557	5.820801258	8.823789597	1.0
[LeftHandThumb4]
37	19.54599953	-11.28499985	11.28499985	0	0	0	1.0
38	19.54599953	-11.28499985	11.28499985	0	0	0	1.0
39	19.54599953	-11.28499985	11.28499985	0	0	0	1.0
[LeftHandIndex1]
37	91.09299469	-5.170999527	22.60099792	0.4642813802	2.460189104	-17.72764206	1.0
38	91.09299469	-5.170999527	22.60099792	0.7260113358	3.261564493	-18.082407	1.0
39	91.09299469	-5.170999527	22.60099792	0.7489867806	2.788844347	-16.22788429	1.0
[LeftHandIndex2]
37	36.76399994	0	0	-0.2672451138	1.746858239	-17.39385986	1.0
38	36.76399994	0	0	-0.2705329359	1.757334709	-17.50165749	1.0
39	36.76399994	0	0	-0.2711726129	1.759376049	-17.52268028	1.0
[LeftHandIndex3]
37	28.83100128	0	0	-0.05767793581	0.8190923929	-8.05574894	1.0
38	28.83100128	0	0	-0.05921962112	0.8299692869	-8.163472176	1.0
39	28.83100128	0	0	-0.05953167006	0.832090795	-8.184498787	1.0
[LeftHandIndex4]
37	23.92700005	0	0	0	0	0	1.0
38	23.92700005	0	0	0	0	0	1.0
39	23.92700005	0	0	0	0	0	1.0
[LeftHandMiddle1]
37	95.33399963	0	0	-1.010246634	3.277813673	-18.79883385	1.0
38	95.33399963	0	0	-1.102196932	3.108796597	-20.06490326	1.0
39	95.33399963	0	0	-1.015917659	2.589336634	-18.89447021	1.0
[LeftHandMiddle2]
37	36.98199844	0	0	-0.254358083	1.705223799	-16.966362	1.0
38	36.98199844	0	0	-0.259953171	1.723433137	-17.15325356	1.0
39	36.98199844	0	0	-0.2610313296	1.726959825	-17.18935204	1.0
[LeftHandMiddle3]
37	29.50900078	0	0	-0.2851707041	1.803052902	-17.9724865	1.0
38	29.50900078	0	0	-0.2911044061	1.821263671	-18.16044235	1.0
39	29.50900078	0	0	-0.2923159003	1.824955821	-18.19850922	1.0
[LeftHandMiddle4]
37	28.3390007	0	0	0	0	0	1.0
38	28.3390007	0	0	0	0	0	1.0
39	28.3390007	0	0	0	0	0	1.0
[LeftHandRing1]
37	91.04499817	-0.4390000105	-18.65100098	-1.332231879	3.512872934	-23.08407593	1.0
38	91.04499817	-0.4390000105	-18.65100098	-1.414971232	3.818864107	-24.12966156	1.0
39	91.04499817	-0.4390000105	-18.65100098	-1.32941699	3.554778099	-23.04725266	1.0
[LeftHandRing2]
37	31.54000092	0	0	-0.4038630426	2.134421587	-21.42724609	1.0
38	31.54000092	0	0	-0.4048947394	2.137019873	-21.45455933	1.0
39	31.54000092	0	0	-0.3981182277	2.119702816	-21.27192307	1.0
[LeftHandRing3]
37	29.37700081	0	0	-0.2981357872	1.842556	-18.38055801	1.0
38	29.37700081	0	0	-0.2989799678	1.845084906	-18.40649033	1.0
39	29.37700081	0	0	-0.293156594	1.827517867	-18.22501945	1.0
[LeftHandRing4]
37	26.47500038	0	0	0	0	0	1.0
38	26.47500038	0	0	0	0	0	1.0
39	26.47500038	0	0	0	0	0	1.0
[LeftHandPinky1]
37	80.77799988	-4.887000084	-38.06099701	-1.988627434	2.644909859	-29.21761703	1.0
38	80.77799988	-4.887000084	-38.06099701	-2.080835819	2.333769798	-30.00966644	1.0
39	80.77799988	-4.887000084	-38.06099701	-2.045382738	2.645895481	-29.78891945	1.0
[LeftHandPinky2]
37	36	0	0	-0.2873551846	1.809833646	-18.04237175	1.0
38	36	0	0	-0.2844053805	1.800728559	-17.94860649	1.0
39	36	0	0	-0.2787887454	1.783304095	-17.76897812	1.0
[LeftHandPinky3]
37	21.14200211	0	0	-0.2595580816	1.722175598	-17.14031029	1.0
38	21.14200211	0	0	-0.2567297518	1.712995052	-17.04591751	1.0
39	21.14200211	0	0	-0.2514024973	1.695525289	-16.86687279	1.0
[LeftHandPinky4]
37	19.75699997	0	0	0	0	0	1.0
38	19.75699997	0	0	0	0	0	1.0
39	19.75699997	0	0	0	0	0	1.0
[RightShoulder]
37	-45.70000076	109.4620056	-26.28000069	5.174079895	16.0179348	14.450284	1.0
38	-45.70000076	109.4620056	-26.28000069	5.514971733	15.96859932	15.74316311	1.0
39	-45.70000076	109.4620056	-26.28000069	5.583414555	16.01807213	15.85812092	1.0
[RightArm]
37	-105.9280014	-5.248000145	-22.32099915	13.67712879	26.80264473	44.25803757	1.0
38	-105.9280014	-5.248000145	-22.32099915	23.04920387	30.38661194	46.13259125	1.0
39	-105.9280014	-5.248000145	-22.32099915	33.45602798	31.24837685	48.37863159	1.0
[RightForeArm]
37	-278.414978	0	0	-1.358787085e-05	19.57352448	1.278305945e-06	1.0
38	-278.414978	0	0	3.324255886e-06	32.18387985	-9.102693184e-06	1.0
39	-278.414978	0	0	-4.72142483e-06	43.66199493	-7.807395377e-06	1.0
[RightHand]
37	-283.2879944	0	0.0009999999311	-43.22002029	3.471095324	1.048406243	1.0
38	-283.2879944	0	0.0009999999311	-24.74595451	8.009442329	5.515869141	1.0
39	-283.2879944	0	0.0009999999311	-9.518468857	10.05091953	9.60198307	1.0
[RightHandPinky1]
37	-80.76699829	-4.885000229	-38.06000137	-1.496455669	-4.072873116	23.51097679	1.0
38	-80.76699829	-4.885000229	-38.06000137	-1.508090138	-4.460304737	26.15423775	1.0
39	-80.76699829	-4.885000229	-38.06000137	-1.693679094	-5.118954182	29.69626045	1.0
[RightHandPinky2]
37	-36	0	0.0009999999311	-0.04719550163	-0.6600884795	8.19750309	1.0
38	-36	0	0.0009999999311	-0.1068666801	-0.9902009964	12.34107971	1.0
39	-36	0	0.0009999999311	-0.2005974352	-1.349524856	16.92918968	1.0
[RightHandPinky3]
37	-21.14200211	0	0	-0.03755010664	-0.5891444087	7.2937994	1.0
38	-21.14200211	0	0	-0.09219098836	-0.9202947021	11.43947506	1.0
39	-21.14200211	0	0	-0.1804258078	-1.281246424	16.02994728	1.0
[RightHandPinky4]
37	-19.75699997	0	0	0	0	0	1.0
38	-19.75699997	0	0	0	0	0	1.0
39	-19.75699997	0	0	0	0	0	1.0
[RightHandRing1]
37	-91.03599548	-0.4390000105	-18.65100098	-0.5127802491	-1.625282049	11.74420357	1.0
38	-91.03599548	-0.4390000105	-18.65100098	-0.7045608163	-1.81099999	15.07363701	1.0
39	-91.03599548	-0.4390000105	-18.65100098	-0.9595915675	-2.202624321	19.17539597	1.0
[RightHandRing2]
37	-31.54000092	0	0	-0.123942107	-1.065300703	13.27271748	1.0
38	-31.54000092	0	0	-0.2133296281	-1.390688777	17.44160461	1.0
39	-31.54000092	0	0	-0.3322107792	-1.723810196	21.81285286	1.0
[RightHandRing3]
37	-29.37700081	0	0	-0.07375369221	-0.8240000606	10.22861767	1.0
38	-29.37700081	0	0	-0.1456668824	-1.153506279	14.39468193	1.0
39	-29.37700081	0	0	-0.2465576082	-1.49229157	18.76228905	1.0
[RightHandRing4]
37	-26.47500038	0	0	0	0	0	1.0
38	-26.47500038	0	0	0	0	0	1.0
39	-26.47500038	0	0	0	0	0	1.0
[RightHandMiddle1]
37	-95.32500458	0	0	-0.1876809746	-1.284232974	5.434036732	1.0
38	-95.32500458	0	0	-0.4405256212	-1.241174817	10.41409492	1.0
39	-95.32500458	0	0	-0.7652504444	-0.8734676838	16.11885262	1.0
[RightHandMiddle2]
37	-36.98199844	0	0	-0.1647329479	-1.225364208	15.3129797	1.0
38	-36.98199844	0	0	-0.2318094224	-1.44815135	18.18740082	1.0
39	-36.98199844	0	0	-0.3058660328	-1.656545162	20.92028427	1.0
[RightHandMiddle3]
37	-29.50900078	0	0	-0.1871708632	-1.306517959	16.32909966	1.0
38	-29.50900078	0	0	-0.2582054138	-1.528148651	19.20448685	1.0
39	-29.50900078	0	0	-0.336073637	-1.735507369	21.94145393	1.0
[RightHandMiddle4]
37	-28.3390007	0	0.0009999999311	0	0	0	1.0
38	-28.3390007	0	0.0009999999311	0	0	0	1.0
39	-28.3390007	0	0.0009999999311	0	0	0	1.0
[RightHandIndex1]
37	-91.08300018	-5.167999744	22.60099792	0.08602561057	4.710536003	-0.1432237923	1.0
38	-91.08300018	-5.167999744	22.60099792	-0.03180414438	3.374738932	2.183144569	1.0
39	-91.08300018	-5.167999744	22.60099792	-0.1162705645	2.480066776	4.155347824	1.0
[RightHandIndex2]
37	-36.76399994	0	0	-0.08598321676	-0.8891086578	11.04660988	1.0
38	-36.76399994	0	0	-0.1589876264	-1.204203963	15.04212189	1.0
39	-36.76399994	0	0	-0.2474415004	-1.494916081	18.79661179	1.0
[RightHandIndex3]
37	-28.83100128	0	0	-0.002830671845	-0.1622358561	2.003444433	1.0
38	-28.83100128	0	0	-0.02390882559	-0.4701339006	5.814655304	1.0
39	-28.83100128	0	0	-0.06289524585	-0.7613689899	9.443557739	1.0
[RightHandIndex4]
37	-23.92700005	0	0	0	0	0	1.0
38	-23.92700005	0	0	0	0	0	1.0
39	-23.92700005	0	0	0	0	0	1.0
[RightHandThumb1]
37	-24.64799881	-15.72700024	26.82600021	-1.956459284	0.5710756183	-3.945821047	1.0
38	-24.64799881	-15.72700024	26.82600021	-1.748409748	-0.02937555499	-4.137429714	1.0
39	-24.64799881	-15.72700024	26.82600021	-1.659507513	-0.286088109	-4.220335007	1.0
[RightHandThumb2]
37	-32.29800034	-18.64699936	18.64699936	17.59952164	-7.338012218	-34.7392807	1.0
38	-32.29800034	-18.64699936	18.64699936	18.28268051	-10.86722755	-30.92365837	1.0
39	-32.29800034	-18.64699936	18.64699936	18.57129288	-12.71860123	-28.45006943	1.0
[RightHandThumb3]
37	-26.52600098	-15.31399918	15.31399918	-18.77617264	0.9637900591	-24.5435257	1.0
38	-26.52600098	-15.31399918	15.31399918	-15.80918312	-5.65446949	-21.54503822	1.0
39	-26.52600098	-15.31399918	15.31399918	-14.83198452	-7.375906467	-18.550354	1.0
[RightHandThumb4]
37	-19.54599953	-11.28499985	11.28499985	0	0	0	1.0
38	-19.54599953	-11.28499985	11.28499985	0	0	0	1.0
39	-19.54599953	-11.28499985	11.28499985	0	0	0	1.0
[LeftUpLeg]
37	82.07800293	-67.51699829	-15.99599934	-55.88356018	13.79335117	6.79052639	1.0
38	82.07800293	-67.51699829	-15.99599934	-52.11184692	11.53783512	6.576930523	1.0
39	82.07800293	-67.51699829	-15.99599934	-46.76667023	11.65697479	6.108869553	1.0
[LeftLeg]
37	0	-443.7049866	2.845999956	62.78377914	-6.001451492	-7.994353771	1.0
38	0	-443.7049866	2.845999956	54.62978745	-7.399754524	-6.505613327	1.0
39	0	-443.7049866	2.845999956	45.39679718	-8.187925339	-5.14791584	1.0
[LeftFoot]
37	0	-444.2789917	-29.8219986	-16.93036079	-5.303311348	2.366947889	1.0
38	0	-444.2789917	-29.8219986	-12.76395702	-3.600020885	0.30693084	1.0
39	0	-444.2789917	-29.8219986	-8.727705002	-1.516127229	-1.071156144	1.0
[LeftToeBase]
37	0	-87.28699493	107.1060028	-4.92853117	8.734956509e-07	2.192557105e-07	1.0
38	0	-87.28699493	107.1060028	-4.928518295	-4.12924328e-06	-2.455666674e-07	1.0
39	0	-87.28699493	107.1060028	-4.928528309	7.44306908e-06	-3.099649462e-07	1.0
[RightUpLeg]
37	-82.07800293	-67.51699829	-15.99599934	-39.56216431	-13.57013798	8.769983292	1.0
38	-82.07800293	-67.51699829	-15.99599934	-36.70433044	-15.06123734	8.251667023	1.0
39	-82.07800293	-67.51699829	-15.99599934	-32.71412277	-14.97203827	7.356829166	1.0
[RightLeg]
37	0	-443.7049866	2.861999989	61.46400452	-7.875354767	-6.806974888	1.0
38	0	-443.7049866	2.861999989	53.93429184	-9.523468018	-5.179004669	1.0
39	0	-443.7049866	2.861999989	44.67916107	-10.36780453	-3.513974667	1.0
[RightFoot]
37	0	-444.2770081	-29.83799934	-31.89219093	-13.98758316	13.46238708	1.0
38	0	-444.2770081	-29.83799934	-27.27798843	-13.73320198	10.25087166	1.0
39	0	-444.2770081	-29.83799934	-21.64261246	-12.64609241	7.08732748	1.0
[RightToeBase]
37	0	-87.28699493	107.1060028	-7.282883167	6.221810054e-06	2.813480933e-06	1.0
38	0	-87.28699493	107.1060028	-7.282883167	3.079609769e-06	-5.181152574e-08	1.0
39	0	-87.28699493	107.1060028	-7.282873631	-4.69740462e-06	-7.247830922e-07	1.0
[EndOfFile]
